<svg width="35" height="23" viewBox="0 0 35 23" fill="none" xmlns="http://www.w3.org/2000/svg">
<path fill-rule="evenodd" clip-rule="evenodd" d="M0.383628 9.7196C-0.127876 10.6313 -0.127876 11.7436 0.383628 12.6553C3.65747 18.4908 10.1132 22.3749 17.4427 22.3749C19.4903 22.3749 21.4697 22.0718 23.3305 21.5077L20.9365 19.0229C19.8109 19.2534 18.6419 19.3749 17.4427 19.3749C11.174 19.3749 5.73123 16.0557 3 11.1875C4.22373 9.00622 5.99181 7.13597 8.13463 5.7359L6.02155 3.54274C3.69496 5.16202 1.75865 7.2687 0.383628 9.7196ZM27.0175 19.9698C30.1702 18.2613 32.7774 15.729 34.5018 12.6553C35.0133 11.7436 35.0133 10.6313 34.5018 9.7196C31.2279 3.88416 24.7722 0 17.4427 0C14.5763 0 11.8435 0.594046 9.38248 1.66653L8.11767 0.353797C7.75829 -0.0192035 7.16434 -0.0304723 6.79105 0.328628C6.41776 0.687727 6.40648 1.28121 6.76586 1.65421L26.156 21.7792C26.5154 22.1522 27.1094 22.1635 27.4827 21.8044C27.856 21.4453 27.8672 20.8518 27.5079 20.4788L27.0175 19.9698ZM11.6311 4.00033C13.4364 3.35399 15.3955 3 17.4427 3C23.7114 3 29.1542 6.31919 31.8854 11.1875C30.3149 13.9869 27.8477 16.274 24.8425 17.7124L22.2966 15.07C23.0715 14.0135 23.5331 12.6849 23.5331 11.2417C23.5331 7.79909 20.9065 5.00834 17.6664 5.00834C16.2588 5.00834 14.9669 5.53511 13.9559 6.41324L11.6311 4.00033ZM11.7998 11.2417C11.7998 10.7175 11.8607 10.2085 11.9753 9.72214L19.2296 17.2513C18.7319 17.3971 18.2077 17.475 17.6664 17.475C14.4264 17.475 11.7998 14.6842 11.7998 11.2417Z" fill="#9E9E9E"/>
</svg>
