<svg width="35" height="23" viewBox="0 0 60 40" fill="none" xmlns="http://www.w3.org/2000/svg">
<path fill-rule="evenodd" clip-rule="evenodd" d="M 58.98 21.63 c 0.87 -1.56 0.87 -3.46 0 -5.02 c -5.6 -9.98 -16.63 -16.62 -29.16 -16.62 c -11.69 0 -23.39 6.33 -29.16 16.62 c -0.87 1.56 -0.87 3.46 0 5.02 c 5.6 9.98 16.63 16.62 29.16 16.62 c 11.72 0 23.39 -6.33 29.16 -16.62 z m -28.84 -13.06 c -5.57 0 -10.09 4.77 -10.09 10.66 c 0 5.88 4.52 10.66 10.09 10.66 c 5.57 0 10.09 -4.77 10.09 -10.66 c 0 -5.88 -4.52 -10.66 -10.09 -10.66 z m -0.32 -3.45 c 10.72 0 20.02 5.67 24.69 14 c -4.89 8.72 -14.76 14 -24.69 14 c -10.72 0 -20.02 -5.67 -24.69 -14 c 2.01 -3.59 4.89 -6.68 8.36 -9.04 c 4.67 -3.17 10.7 -4.95 16.33 -4.95 z" fill="#9E9E9E"/>
</svg>
