<svg width="20" height="20" viewBox="0 0 20 20" fill="none" xmlns="http://www.w3.org/2000/svg">
<path fill-rule="evenodd" clip-rule="evenodd" d="M14.6006 8C14.6006 11.3137 11.9143 14 8.60059 14C5.28688 14 2.60059 11.3137 2.60059 8C2.60059 4.68629 5.28688 2 8.60059 2C11.9143 2 14.6006 4.68629 14.6006 8ZM13.4407 14.3702C12.0969 15.3929 10.4196 16 8.60059 16C4.18231 16 0.600586 12.4183 0.600586 8C0.600586 3.58172 4.18231 0 8.60059 0C13.0189 0 16.6006 3.58172 16.6006 8C16.6006 9.87602 15.9548 11.6012 14.8735 12.9654L19.3688 18.3598C19.7224 18.7841 19.665 19.4147 19.2408 19.7682C18.8165 20.1218 18.1859 20.0645 17.8324 19.6402L13.4407 14.3702Z" fill="#9E9E9E"/>
</svg>
